<!DOCTYPE svg PUBLIC "-//W3C//DTD SVG 20010904//EN" "http://www.w3.org/TR/2001/REC-SVG-20010904/DTD/svg10.dtd">
<svg version="1.0" xmlns="http://www.w3.org/2000/svg" width="694px" height="694px" viewBox="0 0 6940 6940" preserveAspectRatio="xMidYMid meet">
<g id="layer101" fill="#000000" stroke="none">
</g>
<g id="layer102" fill="#2f528f" stroke="none">
<path d="M3310 6929 c-990 -43 -1908 -508 -2537 -1285 -463 -572 -731 -1279 -761 -2012 -33 -774 166 -1478 595 -2111 516 -760 1309 -1280 2223 -1457 394 -76 886 -76 1280 0 1003 194 1847 794 2365 1681 183 313 328 706 401 1085 74 386 74 894 0 1280 -178 928 -721 1741 -1506 2257 -510 336 -1125 537 -1705 559 -77 2 -153 6 -170 7 -16 2 -100 0 -185 -4z"/>
</g>
<g id="layer103" fill="#4831d4" stroke="none">
<path d="M3240 6914 c-746 -68 -1333 -293 -1900 -730 -148 -114 -470 -436 -584 -584 -400 -519 -629 -1073 -713 -1725 -25 -196 -25 -614 0 -810 84 -652 313 -1206 713 -1725 114 -148 436 -470 584 -584 519 -400 1075 -630 1725 -712 173 -22 606 -26 765 -6 804 99 1479 414 2029 947 338 328 583 675 764 1085 146 332 230 647 279 1040 17 142 17 634 0 760 -60 430 -165 779 -336 1119 -156 310 -317 543 -558 808 -229 252 -373 377 -633 548 -456 300 -920 473 -1465 546 -139 19 -556 33 -670 23z"/>
</g>
<g id="layer104" fill="#f8d342" stroke="none">
<path d="M3240 6914 c-746 -68 -1333 -293 -1900 -730 -148 -114 -470 -436 -584 -584 -400 -519 -629 -1073 -713 -1725 -25 -196 -25 -614 0 -810 84 -652 313 -1206 713 -1725 114 -148 436 -470 584 -584 519 -400 1075 -630 1725 -712 173 -22 606 -26 765 -6 804 99 1479 414 2029 947 338 328 583 675 764 1085 146 332 230 647 279 1040 17 142 17 634 0 760 -60 430 -165 779 -336 1119 -156 310 -317 543 -558 808 -229 252 -373 377 -633 548 -456 300 -920 473 -1465 546 -139 19 -556 33 -670 23z m575 -1224 c66 -10 163 -30 215 -44 101 -26 289 -91 303 -105 5 -5 -253 -634 -267 -648 -1 -1 -40 12 -86 28 -215 77 -487 108 -703 80 -257 -34 -506 -131 -713 -278 l-62 -43 -131 0 -131 0 0 -139 c0 -89 -4 -142 -11 -146 -18 -12 -96 -140 -148 -242 -179 -359 -210 -797 -81 -1167 11 -33 18 -61 16 -63 -9 -9 -652 -250 -657 -247 -4 2 -23 55 -43 116 -201 634 -107 1334 254 1897 l50 78 0 276 0 277 279 0 279 0 98 61 c114 72 279 152 417 203 l98 37 41 -36 c65 -55 138 -79 238 -79 65 0 99 5 142 23 66 26 154 101 183 156 l20 38 140 -7 c77 -3 194 -15 260 -26z m1778 -1637 c206 -659 107 -1359 -271 -1928 -304 -459 -768 -790 -1302 -929 -211 -55 -335 -70 -570 -70 -234 0 -359 15 -566 69 -167 44 -230 67 -226 86 3 13 262 702 266 706 1 1 46 -12 101 -28 271 -81 610 -79 870 6 103 34 285 121 366 176 328 221 547 540 629 914 53 246 37 556 -41 782 -10 31 -18 57 -17 58 4 4 712 274 719 274 3 1 22 -52 42 -116z"/>
</g>
<g id="layer105" fill="#ffffff" stroke="none">
<path d="M3240 6914 c-746 -68 -1333 -293 -1900 -730 -148 -114 -470 -436 -584 -584 -400 -519 -629 -1073 -713 -1725 -25 -196 -25 -614 0 -810 84 -652 313 -1206 713 -1725 114 -148 436 -470 584 -584 519 -400 1075 -630 1725 -712 173 -22 606 -26 765 -6 804 99 1479 414 2029 947 338 328 583 675 764 1085 146 332 230 647 279 1040 17 142 17 634 0 760 -60 430 -165 779 -336 1119 -156 310 -317 543 -558 808 -229 252 -373 377 -633 548 -456 300 -920 473 -1465 546 -139 19 -556 33 -670 23z m-58 -774 c59 -30 105 -76 136 -135 22 -42 27 -63 27 -130 0 -67 -5 -88 -27 -130 -31 -60 -77 -105 -138 -137 -65 -33 -176 -33 -243 2 -95 48 -167 162 -167 265 0 122 94 248 211 284 52 16 152 7 201 -19z m633 -450 c66 -10 163 -30 215 -44 101 -26 289 -91 303 -105 5 -5 -253 -634 -267 -648 -1 -1 -40 12 -86 28 -215 77 -487 108 -703 80 -257 -34 -506 -131 -713 -278 l-62 -43 -131 0 -131 0 0 -139 c0 -89 -4 -142 -11 -146 -18 -12 -96 -140 -148 -242 -179 -359 -210 -797 -81 -1167 11 -33 18 -61 16 -63 -9 -9 -652 -250 -657 -247 -4 2 -23 55 -43 116 -201 634 -107 1334 254 1897 l50 78 0 276 0 277 279 0 279 0 98 61 c114 72 279 152 417 203 l98 37 41 -36 c65 -55 138 -79 238 -79 65 0 99 5 142 23 66 26 154 101 183 156 l20 38 140 -7 c77 -3 194 -15 260 -26z m1778 -1637 c206 -659 107 -1359 -271 -1928 -304 -459 -768 -790 -1302 -929 -211 -55 -335 -70 -570 -70 -234 0 -359 15 -566 69 -167 44 -230 67 -226 86 3 13 262 702 266 706 1 1 46 -12 101 -28 271 -81 610 -79 870 6 103 34 285 121 366 176 328 221 547 540 629 914 53 246 37 556 -41 782 -10 31 -18 57 -17 58 4 4 712 274 719 274 3 1 22 -52 42 -116z"/>
</g>


</svg>