<!DOCTYPE svg PUBLIC "-//W3C//DTD SVG 20010904//EN" "http://www.w3.org/TR/2001/REC-SVG-20010904/DTD/svg10.dtd">
<svg version="1.0" xmlns="http://www.w3.org/2000/svg" width="512px" height="512px" viewBox="0 0 5120 5120" preserveAspectRatio="xMidYMid meet">
<g id="layer101" fill="#475993" stroke="none">
 <path d="M1270 4189 c-70 -14 -166 -66 -220 -119 -56 -57 -106 -151 -120 -231 -7 -37 -10 -487 -8 -1310 l3 -1254 23 -56 c50 -126 151 -223 274 -266 50 -17 117 -18 1333 -18 1216 0 1283 1 1333 18 123 43 224 140 274 266 l23 56 3 1250 c2 909 0 1266 -8 1310 -34 175 -173 317 -348 354 -33 7 -188 11 -417 11 l-365 0 0 -585 0 -585 218 0 c208 0 220 -1 238 -21 14 -16 23 -60 41 -202 29 -241 29 -251 -3 -276 -25 -20 -39 -21 -260 -21 l-234 0 0 -186 c0 -212 9 -262 55 -309 44 -44 98 -55 260 -55 l137 0 29 -29 29 -29 0 -177 0 -177 -30 -30 -31 -30 -227 5 c-160 3 -246 10 -289 21 -200 51 -345 186 -410 380 -26 78 -27 90 -31 349 l-4 267 -168 0 -169 0 -21 27 c-20 26 -21 36 -18 239 3 192 5 214 22 233 18 20 29 21 188 21 l168 0 0 585 0 585 -612 -1 c-337 -1 -633 -5 -658 -10z"/>
 </g>

</svg>