<!DOCTYPE svg PUBLIC "-//W3C//DTD SVG 20010904//EN" "http://www.w3.org/TR/2001/REC-SVG-20010904/DTD/svg10.dtd">
<svg version="1.0" xmlns="http://www.w3.org/2000/svg" width="450px" height="503px" viewBox="0 0 4500 5030" preserveAspectRatio="xMidYMid meet">
<g id="layer101" fill="#10181b" stroke="none">
 <path d="M2115 4390 c-64 -66 -167 -110 -261 -110 -62 0 -167 36 -219 75 -25 19 -50 35 -55 35 -6 0 -10 -92 -10 -252 0 -218 3 -264 20 -331 39 -156 121 -285 243 -383 123 -98 240 -139 437 -154 140 -11 197 -22 297 -55 294 -99 536 -342 631 -635 180 -553 -139 -1136 -704 -1287 -85 -23 -119 -26 -244 -27 -163 0 -260 18 -398 76 -159 66 -348 223 -445 371 -86 130 -147 306 -162 470 l-7 77 -119 0 -119 0 6 43 c9 71 32 179 48 232 8 27 14 51 12 52 -2 2 -139 52 -305 112 l-301 108 -25 -82 c-183 -599 -54 -1267 336 -1742 l59 -71 0 -156 0 -156 177 0 176 0 93 -55 c430 -257 952 -329 1440 -200 50 13 105 30 122 37 l30 13 -64 179 c-35 98 -61 182 -59 186 3 4 16 11 31 14 47 12 224 96 292 138 219 137 400 318 532 533 45 73 130 251 130 273 0 26 30 21 169 -28 79 -29 147 -48 152 -43 11 11 53 161 73 258 102 513 -22 1069 -331 1481 l-53 72 0 176 0 176 -187 0 -188 0 -83 55 c-285 186 -665 295 -1028 295 l-93 0 -3 136 -3 135 -40 -41z"/>
 </g>
<g id="layer102" fill="#f8d341" stroke="none">
 <path d="M2160 4037 c0 -123 0 -123 29 -151 18 -18 43 -29 67 -32 22 -2 91 -9 154 -15 486 -48 929 -328 1190 -754 194 -316 271 -724 205 -1095 -13 -76 -42 -188 -59 -230 -5 -12 27 -26 145 -68 84 -29 155 -50 160 -45 11 11 54 162 73 258 102 513 -22 1069 -331 1481 l-53 72 0 176 0 176 -187 0 -188 0 -83 55 c-285 186 -665 295 -1028 295 l-94 0 0 -123z"/>
 <path d="M435 2725 c-183 -599 -54 -1267 336 -1742 l59 -71 0 -156 0 -156 177 0 176 0 93 -55 c453 -271 1014 -337 1516 -179 l77 25 -50 142 c-28 78 -58 161 -66 184 l-14 41 -67 -19 c-193 -56 -496 -71 -697 -35 -453 81 -853 356 -1086 746 -88 148 -163 335 -193 482 -15 77 -36 246 -36 298 l0 30 170 0 169 0 6 38 c18 115 30 172 46 226 10 33 17 61 15 63 -2 2 -139 52 -305 112 l-301 108 -25 -82z"/>
 </g>

</svg>