<!DOCTYPE svg PUBLIC "-//W3C//DTD SVG 20010904//EN" "http://www.w3.org/TR/2001/REC-SVG-20010904/DTD/svg10.dtd">
<svg version="1.0" xmlns="http://www.w3.org/2000/svg" width="628px" height="627px" viewBox="0 0 6280 6270" preserveAspectRatio="xMidYMid meet">
<g id="layer101" fill="#10181b" stroke="none">
 <path d="M2679 6107 c-103 -29 -185 -101 -231 -203 -34 -74 -32 -199 3 -274 39 -81 90 -134 167 -172 59 -29 76 -33 147 -33 65 1 91 6 136 27 79 36 133 89 171 166 30 60 33 76 33 152 0 99 -27 169 -90 239 -77 85 -227 129 -336 98z"/>
 <path d="M3214 5712 c-16 -101 -53 -173 -126 -246 -70 -70 -119 -99 -205 -121 -103 -27 -217 -14 -316 36 -56 29 -167 143 -191 197 -24 53 -26 53 -182 -13 -129 -55 -241 -114 -381 -202 -101 -63 -101 -63 -427 -63 -326 0 -326 0 -326 -327 0 -326 0 -326 -49 -402 -399 -623 -527 -1375 -355 -2076 36 -145 94 -315 107 -314 7 0 98 33 202 73 190 73 190 73 204 37 8 -20 46 -99 85 -176 77 -150 164 -287 258 -402 58 -71 58 -71 58 -257 0 -186 0 -186 213 -186 213 0 213 0 284 -45 81 -50 264 -143 334 -169 46 -18 46 -18 -27 -212 -41 -106 -74 -198 -74 -203 0 -5 48 -25 108 -45 468 -155 968 -176 1454 -60 928 221 1671 932 1933 1849 76 269 100 443 100 745 -1 261 -19 419 -76 640 -29 110 -83 277 -94 288 -3 3 -86 -25 -185 -63 -99 -37 -182 -66 -183 -64 -2 2 -18 40 -37 84 -65 154 -169 334 -269 465 -41 54 -41 54 -41 267 0 213 0 213 -224 213 -224 0 -224 0 -318 59 -51 32 -147 85 -213 117 -66 33 -122 60 -124 61 -2 1 31 83 73 182 42 99 76 182 76 185 0 5 -125 54 -218 85 -215 73 -560 131 -772 131 -66 0 -66 0 -76 -68z m-668 -969 c127 -220 334 -365 579 -408 48 -8 117 -15 154 -15 151 0 346 -51 504 -132 585 -300 815 -1014 515 -1600 -115 -225 -281 -392 -508 -511 -649 -341 -1446 -18 -1680 681 -31 92 -60 247 -60 320 0 42 0 42 -135 42 -135 0 -135 0 -135 58 0 90 18 218 46 322 14 52 27 101 27 108 1 9 -53 34 -155 70 -86 32 -160 60 -163 64 -18 18 127 302 221 435 44 62 44 62 44 222 0 161 0 161 160 161 160 0 160 0 262 70 88 59 269 159 290 160 3 0 19 -21 34 -47z"/>
 </g>
<g id="layer102" fill="#f6cd01" stroke="none">
 <path d="M3213 5709 c-6 -38 -25 -99 -42 -133 -31 -63 -31 -63 -31 -273 0 -284 -4 -278 236 -299 387 -34 697 -151 999 -379 465 -351 745 -912 745 -1496 0 -414 -153 -850 -407 -1164 -49 -60 -49 -60 -246 -63 -197 -2 -197 -2 -197 -172 0 -170 0 -170 -57 -207 -88 -56 -267 -139 -385 -177 -516 -169 -1092 -105 -1551 171 -87 52 -247 171 -253 188 -4 8 -12 15 -19 15 -18 0 -191 183 -262 276 -212 282 -337 601 -373 953 -19 190 -41 171 200 171 210 0 210 0 210 58 0 90 18 218 46 322 14 52 27 101 27 108 1 9 -53 34 -155 70 -86 32 -160 60 -163 64 -18 18 127 302 221 435 44 62 44 62 44 222 0 161 0 161 160 161 159 0 159 0 268 73 60 40 149 93 198 116 49 24 90 45 92 46 2 2 -4 17 -12 34 -9 17 -27 72 -41 123 -23 86 -25 110 -25 311 0 217 0 217 -34 268 -19 27 -38 59 -41 70 -9 28 -31 23 -171 -36 -129 -55 -241 -114 -381 -202 -101 -63 -101 -63 -427 -63 -326 0 -326 0 -326 -327 0 -326 0 -326 -49 -402 -399 -623 -527 -1375 -355 -2076 36 -145 94 -315 107 -314 7 0 98 33 202 73 190 73 190 73 204 37 8 -20 46 -99 85 -176 77 -150 164 -287 258 -402 58 -71 58 -71 58 -257 0 -186 0 -186 213 -186 213 0 213 0 284 -45 81 -50 264 -143 334 -169 46 -18 46 -18 -27 -212 -41 -106 -74 -198 -74 -203 0 -5 48 -25 108 -45 468 -155 968 -176 1454 -60 928 221 1671 932 1933 1849 76 269 100 443 100 745 -1 261 -19 419 -76 640 -29 110 -83 277 -94 288 -3 3 -86 -25 -185 -63 -99 -37 -182 -66 -183 -64 -2 2 -18 40 -37 84 -65 154 -169 334 -269 465 -41 54 -41 54 -41 267 0 213 0 213 -224 213 -224 0 -224 0 -318 59 -51 32 -147 85 -213 117 -66 33 -122 60 -124 61 -2 1 31 83 73 182 42 99 76 182 76 185 0 5 -125 54 -218 85 -215 73 -560 131 -772 131 -66 0 -66 0 -77 -71z"/>
 </g>
<g id="layer103" fill="#866afc" stroke="none">
 <path d="M3213 5709 c-6 -38 -25 -99 -42 -133 -26 -53 -31 -75 -31 -135 0 -71 0 -71 113 -71 240 0 491 -40 712 -115 72 -23 137 -46 146 -50 13 -5 31 28 93 174 42 99 76 182 76 185 0 5 -125 54 -218 85 -215 73 -560 131 -772 131 -66 0 -66 0 -77 -71z"/>
 <path d="M2235 5583 c-124 -51 -290 -137 -417 -216 -106 -67 -106 -67 -432 -67 -326 0 -326 0 -326 -327 0 -326 0 -326 -49 -402 -399 -623 -527 -1375 -355 -2076 32 -129 93 -315 104 -315 9 0 383 140 389 146 2 2 -13 58 -34 125 -132 424 -138 866 -19 1282 19 66 37 125 42 132 5 10 52 -4 196 -56 105 -38 191 -68 192 -66 0 1 18 43 39 92 44 102 127 251 191 342 44 62 44 62 44 222 0 161 0 161 160 161 159 0 159 0 268 73 60 40 149 93 198 116 49 24 90 45 92 46 2 2 -4 17 -12 34 -9 17 -27 72 -41 123 -23 86 -25 110 -25 311 0 217 0 217 -34 268 -19 27 -38 58 -41 69 -9 27 -26 25 -130 -17z"/>
 <path d="M5532 3993 c-138 -53 -172 -70 -168 -82 105 -319 143 -560 133 -846 -6 -148 -21 -277 -48 -400 -17 -76 -70 -259 -77 -267 -4 -3 -81 20 -172 53 -91 32 -170 59 -175 59 -6 0 -21 -28 -34 -62 -61 -159 -172 -352 -278 -483 -49 -60 -49 -60 -246 -63 -197 -2 -197 -2 -197 -172 0 -170 0 -170 -52 -204 -63 -40 -210 -113 -291 -146 -45 -18 -57 -26 -52 -39 4 -9 29 -77 55 -151 26 -74 51 -143 55 -152 5 -14 -10 -22 -89 -47 -420 -135 -898 -133 -1331 6 -63 20 -117 35 -119 32 -6 -6 -146 -378 -146 -388 0 -5 48 -25 108 -45 468 -155 968 -176 1454 -60 473 113 913 359 1258 704 612 612 886 1476 740 2336 -33 194 -119 485 -144 483 -6 0 -89 -30 -184 -66z"/>
 </g>

</svg>