<!DOCTYPE svg PUBLIC "-//W3C//DTD SVG 20010904//EN" "http://www.w3.org/TR/2001/REC-SVG-20010904/DTD/svg10.dtd">
<svg version="1.0" xmlns="http://www.w3.org/2000/svg" width="975px" height="316px" viewBox="0 0 9750 3160" preserveAspectRatio="xMidYMid meet">
<g id="layer101" fill="#F8D341" stroke="none">
 <path d="M4423 2205 c-8 -6 -13 -22 -11 -36 3 -22 10 -25 74 -35 130 -19 216 -71 258 -156 23 -45 26 -65 26 -147 l0 -96 -19 31 c-41 68 -164 133 -265 141 -116 10 -209 -32 -313 -139 -75 -78 -97 -126 -101 -225 -6 -121 13 -167 105 -264 94 -98 154 -130 257 -137 164 -10 315 79 385 227 26 56 26 56 26 321 l0 265 -28 57 c-51 103 -174 182 -306 197 -49 5 -77 4 -88 -4z m168 -404 c59 -30 121 -92 150 -149 19 -38 24 -63 24 -127 0 -95 -22 -147 -87 -214 -64 -64 -109 -84 -204 -89 -72 -4 -89 -1 -137 21 -120 55 -179 141 -185 270 -4 72 -1 84 27 142 36 73 93 126 168 156 66 26 182 22 244 -10z"/>
 <path d="M964 1896 c-3 -8 -4 -23 -2 -33 3 -16 17 -18 146 -21 l142 -3 0 -464 0 -465 -126 0 c-69 0 -134 -5 -145 -10 -23 -13 -25 -55 -3 -64 9 -3 147 -6 308 -6 303 0 316 2 316 42 0 29 -41 38 -166 38 l-114 0 0 465 0 465 135 0 c134 0 135 0 141 24 3 14 3 30 -1 35 -4 7 -109 11 -316 11 -260 0 -311 -2 -315 -14z"/>
 <path d="M1702 1898 c-9 -9 -12 -78 -12 -248 0 -295 5 -316 93 -402 79 -76 143 -108 219 -108 121 0 225 66 280 178 l33 67 3 245 c4 271 1 289 -51 276 l-27 -6 0 -228 c0 -251 -8 -304 -54 -365 -60 -78 -190 -110 -282 -68 -49 22 -111 92 -124 140 -5 20 -10 142 -10 272 0 241 -3 259 -40 259 -9 0 -21 -5 -28 -12z"/>
 <path d="M2715 1896 c-72 -18 -123 -47 -178 -103 -193 -192 -131 -502 124 -617 30 -13 73 -27 97 -31 65 -10 173 12 233 48 68 42 80 60 54 87 -20 20 -20 20 -90 -18 -63 -33 -78 -37 -145 -37 -149 0 -266 91 -300 233 -24 102 5 203 81 280 65 65 119 87 214 87 80 -1 103 -7 184 -54 25 -15 39 -18 53 -10 59 31 -33 111 -160 138 -65 14 -102 13 -167 -3z"/>
 <path d="M3510 1904 c-98 -19 -186 -75 -246 -156 -56 -77 -77 -150 -72 -250 17 -288 344 -455 587 -299 255 164 230 544 -44 672 -60 28 -167 44 -225 33z m173 -94 c65 -25 142 -97 170 -159 67 -152 3 -328 -147 -401 -59 -29 -71 -32 -143 -29 -120 6 -211 63 -264 167 -20 39 -24 62 -24 137 0 106 19 150 91 221 82 80 207 105 317 64z"/>
 <path d="M4962 1898 c-9 -9 -12 -78 -12 -248 0 -297 4 -314 96 -403 81 -78 140 -107 216 -107 150 0 281 108 307 254 14 77 14 471 1 497 -12 21 -40 25 -58 7 -9 -9 -12 -76 -12 -238 0 -262 -8 -305 -68 -367 -52 -53 -98 -73 -169 -73 -74 0 -129 25 -174 79 -54 62 -59 91 -59 353 0 240 -3 258 -40 258 -9 0 -21 -5 -28 -12z"/>
 <path d="M5687 1904 c-4 -4 -7 -175 -7 -379 0 -328 2 -374 16 -386 11 -9 20 -10 32 -2 15 9 17 46 17 389 l0 379 -25 3 c-14 2 -29 0 -33 -4z"/>
 <path d="M6305 1903 c-105 -14 -216 -73 -302 -161 -204 -206 -204 -538 0 -744 102 -103 209 -154 347 -164 171 -13 389 79 309 129 -13 8 -32 4 -79 -17 -115 -52 -272 -50 -387 4 -86 40 -183 137 -223 222 -107 230 -11 502 218 616 69 33 84 37 176 40 90 4 109 1 176 -23 98 -35 134 -37 138 -8 3 18 -9 28 -70 57 -102 50 -190 64 -303 49z"/>
 <path d="M6751 1896 c-8 -9 -10 -157 -9 -531 3 -481 4 -519 21 -529 12 -8 22 -8 35 0 15 10 17 33 20 213 l2 202 29 -28 c71 -71 202 -101 299 -69 108 36 191 131 211 240 6 33 11 157 11 277 0 233 -2 244 -52 237 l-23 -3 -5 -261 -5 -261 -30 -49 c-46 -73 -98 -105 -182 -111 -108 -8 -185 36 -229 132 -23 48 -24 59 -24 291 0 173 -3 243 -12 252 -16 16 -43 15 -57 -2z"/>
 <path d="M7765 1897 c-67 -22 -102 -45 -156 -99 -69 -69 -101 -141 -107 -239 -6 -100 11 -166 60 -239 111 -166 325 -219 503 -123 59 32 130 110 162 178 l28 60 0 235 0 235 -23 3 c-40 6 -52 -14 -52 -86 l0 -66 -34 40 c-19 22 -63 56 -98 74 -56 30 -73 34 -153 37 -55 2 -105 -2 -130 -10z m245 -91 c102 -52 170 -162 170 -275 0 -82 -24 -143 -82 -206 -66 -73 -133 -99 -238 -93 -86 5 -135 27 -194 85 -149 147 -104 396 89 490 44 21 61 24 135 20 56 -2 97 -10 120 -21z"/>
 <path d="M8655 1892 c-108 -38 -202 -129 -247 -239 -22 -56 -23 -69 -26 -426 -4 -396 -3 -401 47 -395 l26 3 3 148 c1 81 4 148 5 148 1 1 65 5 142 8 139 6 140 6 143 30 6 43 -19 51 -161 51 l-129 0 4 188 c5 215 14 246 97 329 54 54 115 84 190 92 60 7 84 28 65 59 -15 24 -95 26 -159 4z"/>
 <path d="M5687 1073 c-9 -8 -9 -156 -1 -177 7 -19 45 -21 62 -4 7 7 12 42 12 88 0 46 -5 81 -12 88 -13 13 -50 16 -61 5z"/>
 </g>

</svg>