<!DOCTYPE svg PUBLIC "-//W3C//DTD SVG 20010904//EN" "http://www.w3.org/TR/2001/REC-SVG-20010904/DTD/svg10.dtd">
<svg version="1.0" xmlns="http://www.w3.org/2000/svg" width="512px" height="512px" viewBox="0 0 5120 5120" preserveAspectRatio="xMidYMid meet">
<g id="layer101" fill="#1da1f2" stroke="none">
 <path d="M2420 4553 c-298 -28 -522 -89 -754 -205 -581 -291 -982 -844 -1083 -1493 -23 -149 -23 -441 0 -590 136 -875 807 -1546 1682 -1682 149 -23 441 -23 590 0 505 78 946 332 1265 728 412 513 543 1200 349 1832 -215 702 -804 1234 -1524 1376 -167 33 -388 48 -525 34z"/>
 </g>
<g id="layer102" fill="#ffffff" stroke="none">
 <path d="M1976 3510 c-172 -22 -332 -72 -491 -154 l-100 -51 145 -7 c113 -5 165 -12 233 -32 90 -27 238 -96 294 -138 l31 -24 -66 -12 c-145 -28 -278 -125 -341 -249 -17 -35 -31 -66 -31 -71 0 -5 25 -7 55 -4 30 2 76 1 102 -3 l48 -7 -60 -22 c-146 -53 -252 -169 -299 -325 -9 -30 -16 -72 -16 -94 0 -33 3 -38 18 -32 56 25 121 44 147 45 l31 0 -56 -58 c-95 -98 -147 -237 -137 -367 5 -67 37 -179 57 -199 5 -5 42 25 92 76 204 207 442 335 720 389 54 10 118 19 141 19 l42 0 -3 -84 c-6 -143 40 -260 142 -361 107 -107 260 -159 403 -137 89 14 186 57 240 106 22 20 50 36 62 36 32 0 162 -45 232 -81 60 -30 61 -30 54 -7 -14 48 -72 132 -128 185 l-57 55 42 -7 c24 -4 80 -19 126 -34 45 -15 82 -24 82 -21 0 14 -112 140 -167 188 l-60 52 -6 114 c-8 138 -28 248 -68 368 -140 428 -448 747 -854 883 -170 58 -434 86 -599 65z"/>
 </g>

</svg>