<!DOCTYPE svg PUBLIC "-//W3C//DTD SVG 20010904//EN" "http://www.w3.org/TR/2001/REC-SVG-20010904/DTD/svg10.dtd">
<svg version="1.0" xmlns="http://www.w3.org/2000/svg" width="512px" height="512px" viewBox="0 0 5120 5120" preserveAspectRatio="xMidYMid meet">
<g id="layer101" fill="#000000" stroke="none">
</g>
<g id="layer102" fill="#3fc250" stroke="none">
<path d="M1070 4239 c0 -11 92 -352 176 -651 l44 -157 -40 -77 c-78 -153 -136 -338 -159 -507 -18 -128 -14 -350 9 -480 54 -316 197 -599 420 -830 221 -229 464 -371 766 -448 236 -59 497 -61 744 -5 422 96 794 372 1014 752 352 607 262 1376 -221 1884 -251 264 -545 422 -897 482 -103 17 -149 19 -306 15 -252 -7 -422 -46 -631 -146 l-86 -40 -394 103 c-217 57 -404 106 -416 110 -15 5 -23 3 -23 -5z"/>
</g>
<g id="layer103" fill="#fcfcfc" stroke="none">
<path d="M1070 4239 c0 -11 92 -352 176 -651 l44 -157 -40 -77 c-78 -153 -136 -338 -159 -507 -18 -128 -14 -350 9 -480 54 -316 197 -599 420 -830 221 -229 464 -371 766 -448 236 -59 497 -61 744 -5 422 96 794 372 1014 752 352 607 262 1376 -221 1884 -251 264 -545 422 -897 482 -103 17 -149 19 -306 15 -252 -7 -422 -46 -631 -146 l-86 -40 -394 103 c-217 57 -404 106 -416 110 -15 5 -23 3 -23 -5z m1839 -304 c777 -148 1254 -942 1020 -1699 -173 -561 -721 -947 -1309 -923 -260 11 -484 85 -700 230 -98 66 -252 216 -323 315 -308 428 -335 993 -70 1444 l51 86 -65 237 c-36 130 -63 239 -60 241 3 3 114 -24 248 -59 l244 -65 30 20 c140 89 345 160 545 188 87 12 286 4 389 -15z"/>
<path d="M2945 3375 c-103 -27 -233 -73 -320 -115 -234 -113 -487 -363 -665 -660 -76 -126 -95 -193 -95 -330 0 -109 2 -119 32 -183 42 -88 122 -173 177 -188 37 -10 115 -6 152 8 8 3 25 26 38 52 45 88 136 320 136 346 0 30 -31 82 -89 149 -23 26 -41 56 -41 66 0 10 22 51 49 92 125 186 299 328 500 407 61 25 65 22 162 -99 63 -79 75 -90 103 -90 31 0 342 144 380 176 15 13 17 24 11 71 -13 102 -34 155 -80 200 -58 55 -117 89 -190 107 -81 22 -154 19 -260 -9z"/>
</g>


</svg>